<svg width="20" height="20" viewBox="0 0 20 20" fill="none" xmlns="http://www.w3.org/2000/svg">
<g id="&#208;&#152;&#208;&#186;&#208;&#190;&#208;&#189;&#208;&#186;&#208;&#176; &#208;&#180;&#208;&#187;&#209;&#143; &#209;&#141;&#208;&#186;&#209;&#129;&#208;&#191;&#208;&#190;&#209;&#128;&#209;&#130;&#208;&#176;">
<path id="Pre-Icon" fill-rule="evenodd" clip-rule="evenodd" d="M10 1.5C5.30514 1.5 1.5 5.30514 1.5 10C1.5 14.6949 5.30514 18.5 10 18.5C14.6949 18.5 18.5 14.6949 18.5 10C18.5 5.30514 14.6949 1.5 10 1.5ZM0.5 10C0.5 4.75286 4.75286 0.5 10 0.5C15.2471 0.5 19.5 4.75286 19.5 10C19.5 15.2471 15.2471 19.5 10 19.5C4.75286 19.5 0.5 15.2471 0.5 10ZM10 5.5C10.2761 5.5 10.5 5.72386 10.5 6V9.5H14C14.2761 9.5 14.5 9.72386 14.5 10C14.5 10.2761 14.2761 10.5 14 10.5H10.5V14C10.5 14.2761 10.2761 14.5 10 14.5C9.72386 14.5 9.5 14.2761 9.5 14V10.5H5.99999C5.72385 10.5 5.49999 10.2761 5.49999 10C5.49999 9.72386 5.72385 9.5 5.99999 9.5H9.5V6C9.5 5.72386 9.72386 5.5 10 5.5Z" fill="#737C8C"/>
</g>
</svg>
