<svg width="14" height="14" viewBox="0 0 14 14" fill="none" xmlns="http://www.w3.org/2000/svg">
<path d="M2.97606 8.428C1.35606 8.428 0.294063 7.078 0.294063 4.684C0.294063 2.326 1.35606 0.975999 2.97606 0.975999C4.57806 0.975999 5.65806 2.326 5.65806 4.684C5.65806 7.078 4.57806 8.428 2.97606 8.428ZM2.97606 7.51C3.89406 7.51 4.52406 6.556 4.52406 4.684C4.52406 2.812 3.89406 1.894 2.97606 1.894C2.04006 1.894 1.41006 2.812 1.41006 4.684C1.41006 6.556 2.04006 7.51 2.97606 7.51ZM11.2021 13.216C9.58206 13.216 8.52006 11.866 8.52006 9.472C8.52006 7.114 9.58206 5.764 11.2021 5.764C12.8041 5.764 13.8841 7.114 13.8841 9.472C13.8841 11.866 12.8041 13.216 11.2021 13.216ZM11.2021 12.298C12.1201 12.298 12.7501 11.344 12.7501 9.472C12.7501 7.6 12.1201 6.682 11.2021 6.682C10.2661 6.682 9.63606 7.6 9.63606 9.472C9.63606 11.344 10.2661 12.298 11.2021 12.298ZM3.31806 13.216L9.83406 0.975999H10.8421L4.32606 13.216H3.31806Z" fill="#737C8C"/>
</svg>
