<svg width="20" height="20" viewBox="0 0 20 20" fill="none" xmlns="http://www.w3.org/2000/svg">
<path fill-rule="evenodd" clip-rule="evenodd" d="M5.54494 2.12237C5.91112 1.14631 6.84362 0.5 7.88608 0.5H12.1141C13.1565 0.5 14.089 1.14631 14.4552 2.12237L14.4553 2.12248L15.3466 4.5H17H18C18.2761 4.5 18.5 4.72386 18.5 5C18.5 5.27615 18.2761 5.5 18 5.5H17.4656L16.6318 17.1776L16.6318 17.1777C16.538 18.4862 15.4495 19.5 14.138 19.5H5.85804C4.54902 19.5 3.46189 18.4899 3.36443 17.1842L3.3644 17.1838L2.5016 5.5H2C1.72386 5.5 1.5 5.27615 1.5 5C1.5 4.72386 1.72386 4.5 2 4.5H2.96604H4.65355L5.5449 2.12248L5.54494 2.12237ZM4.98864 5.5C4.99624 5.50018 5.00382 5.50018 5.01138 5.5H14.9888C14.9964 5.50018 15.0039 5.50018 15.0115 5.5H16.4631L15.6343 17.1063C15.6343 17.1063 15.6343 17.1063 15.6343 17.1064C15.578 17.8919 14.9246 18.5 14.138 18.5H5.85804C5.07313 18.5 4.42031 17.8942 4.36167 17.11C4.36167 17.1099 4.36166 17.1098 4.36166 17.1098L3.50433 5.5H4.98864ZM14.2786 4.5H5.72152L6.48122 2.47363C6.48124 2.47359 6.48125 2.47356 6.48126 2.47352C6.70111 1.88764 7.26058 1.5 7.88608 1.5H12.1141C12.7396 1.5 13.2991 1.88764 13.5189 2.47352C13.5189 2.47356 13.5189 2.47359 13.5189 2.47363L14.2786 4.5ZM6.53516 8.50128C6.81059 8.48159 7.04985 8.68891 7.06954 8.96435L7.49854 14.9643C7.51824 15.2398 7.31091 15.479 7.03547 15.4987C6.76004 15.5184 6.52078 15.3111 6.50109 15.0357L6.07209 9.03567C6.05239 8.76023 6.25972 8.52098 6.53516 8.50128ZM13.4648 8.50128C13.7402 8.52098 13.9476 8.76023 13.9279 9.03567L13.4989 15.0357C13.4792 15.3111 13.2399 15.5184 12.9645 15.4987C12.689 15.479 12.4817 15.2398 12.5014 14.9643L12.9304 8.96435C12.9501 8.68891 13.1894 8.48159 13.4648 8.50128ZM10.0001 8.50001C10.2762 8.50001 10.5001 8.72387 10.5001 9.00001V15C10.5001 15.2761 10.2762 15.5 10.0001 15.5C9.72391 15.5 9.50006 15.2761 9.50006 15V9.00001C9.50006 8.72387 9.72391 8.50001 10.0001 8.50001Z" fill="#737C8C"/>
</svg>
