<svg width="20" height="20" viewBox="0 0 20 20" fill="none" xmlns="http://www.w3.org/2000/svg">
<g id="&#208;&#152;&#208;&#186;&#208;&#190;&#208;&#189;&#208;&#186;&#208;&#176; &#208;&#180;&#208;&#187;&#209;&#143; &#209;&#141;&#208;&#186;&#209;&#129;&#208;&#191;&#208;&#190;&#209;&#128;&#209;&#130;&#208;&#176;">
<path id="Pre-Icon" fill-rule="evenodd" clip-rule="evenodd" d="M10 1.5C5.30514 1.5 1.5 5.30514 1.5 10C1.5 14.6949 5.30514 18.5 10 18.5C14.6949 18.5 18.5 14.6949 18.5 10C18.5 5.30514 14.6949 1.5 10 1.5ZM0.5 10C0.5 4.75286 4.75286 0.5 10 0.5C15.2471 0.5 19.5 4.75286 19.5 10C19.5 15.2471 15.2471 19.5 10 19.5C4.75286 19.5 0.5 15.2471 0.5 10ZM6.81637 6.81645C7.01163 6.62119 7.32821 6.62119 7.52347 6.81645L9.99992 9.29289L12.4764 6.81645C12.6716 6.62119 12.9882 6.62119 13.1835 6.81645C13.3787 7.01171 13.3787 7.32829 13.1835 7.52355L10.707 10L13.1835 12.4764C13.3787 12.6717 13.3787 12.9883 13.1835 13.1836C12.9882 13.3788 12.6716 13.3788 12.4764 13.1836L9.99992 10.7071L7.52347 13.1836C7.32821 13.3788 7.01163 13.3788 6.81637 13.1836C6.62111 12.9883 6.62111 12.6717 6.81637 12.4764L9.29281 10L6.81637 7.52355C6.62111 7.32829 6.62111 7.01171 6.81637 6.81645Z" fill="#737C8C"/>
</g>
</svg>
