<svg width="20" height="20" viewBox="0 0 20 20" fill="none" xmlns="http://www.w3.org/2000/svg">
<g id="&#208;&#152;&#208;&#186;&#208;&#190;&#208;&#189;&#208;&#186;&#208;&#176; &#208;&#180;&#208;&#187;&#209;&#143; &#209;&#141;&#208;&#186;&#209;&#129;&#208;&#191;&#208;&#190;&#209;&#128;&#209;&#130;&#208;&#176;">
<path id="Pre-Icon" fill-rule="evenodd" clip-rule="evenodd" d="M15.0747 2.52375C14.9772 2.49208 14.8722 2.49208 14.7748 2.52375C14.75 2.53178 14.7027 2.55306 14.6007 2.63964C14.4942 2.73002 14.3645 2.85915 14.1636 3.06003L14.1614 3.06224L14.1614 3.06223L13.2094 4.00225L15.9976 6.79052L16.9375 5.83798L16.9399 5.83558C17.1408 5.63469 17.27 5.50501 17.3604 5.39856C17.447 5.29657 17.4682 5.24923 17.4763 5.22456C17.5079 5.12715 17.5079 5.02223 17.4763 4.92482C17.4682 4.90015 17.447 4.85281 17.3604 4.75082C17.27 4.64436 17.1408 4.51469 16.9399 4.3138L15.6859 3.06003C15.485 2.85914 15.3553 2.73002 15.2488 2.63964C15.1468 2.55306 15.0994 2.53178 15.0747 2.52375ZM15.2925 7.49964L12.5003 4.70738L3.30233 13.9193L3.30203 13.9196C2.94995 14.2717 2.83286 14.3931 2.74987 14.5275C2.66998 14.6569 2.61064 14.7979 2.57397 14.9454C2.53589 15.0987 2.53087 15.2673 2.52525 15.7651L2.50574 17.4938L4.23357 17.4729C4.73087 17.4669 4.89936 17.4617 5.05249 17.4236C5.19991 17.3869 5.34075 17.3276 5.46999 17.2477C5.60423 17.1648 5.7256 17.0479 6.07727 16.6963L6.07759 16.6959L15.2925 7.49964ZM14.4658 1.57268C14.7641 1.47578 15.0854 1.47577 15.3837 1.57267C15.5839 1.63773 15.7466 1.75051 15.8959 1.87724C16.0373 1.99723 16.1959 2.1558 16.3793 2.33925L16.3929 2.35285L17.6469 3.60663L17.6605 3.6202C17.844 3.80365 18.0026 3.96222 18.1226 4.10357C18.2494 4.25286 18.3622 4.41551 18.4273 4.61575C18.5242 4.91403 18.5242 5.23534 18.4273 5.53362C18.3622 5.73387 18.2494 5.89652 18.1226 6.0458C18.0026 6.18715 17.844 6.34571 17.6605 6.52916L17.6493 6.54034L17.6469 6.54275L16.3559 7.85118L16.3532 7.85392L16.3532 7.85391L6.78431 17.4034C6.78428 17.4035 6.78424 17.4035 6.78421 17.4035C6.77094 17.4168 6.75785 17.4299 6.74493 17.4428C6.44777 17.7401 6.24121 17.9468 5.99551 18.0985C5.77838 18.2326 5.54178 18.3323 5.29413 18.394C5.01389 18.4638 4.72172 18.4672 4.30137 18.4722C4.28306 18.4724 4.26449 18.4726 4.24568 18.4728L2.00605 18.5C1.87143 18.5016 1.74183 18.4489 1.64659 18.3537C1.55135 18.2585 1.49851 18.129 1.50003 17.9944L1.52531 15.7538C1.52553 15.735 1.52573 15.7164 1.52593 15.698C1.53056 15.2773 1.53377 14.9848 1.60349 14.7042C1.6651 14.4563 1.7648 14.2194 1.89905 14.0021C2.05095 13.7561 2.25787 13.5493 2.55554 13.2519C2.56852 13.2389 2.58167 13.2258 2.59499 13.2125L12.1462 3.64672L12.1487 3.6442L12.1487 3.64421L13.4565 2.35286L13.4588 2.35066L13.4701 2.33927C13.6536 2.15582 13.8122 1.99724 13.9536 1.87725C14.1029 1.75051 14.2655 1.63773 14.4658 1.57268Z" fill="#737C8C"/>
</g>
</svg>
